<svg width="48" height="48" viewBox="0 0 48 48" fill="none" xmlns="http://www.w3.org/2000/svg">
<rect width="48" height="48" rx="24" fill="#1F2031"/>
<path fill-rule="evenodd" clip-rule="evenodd" d="M26.4567 18.5543C27.04 17.8783 27.4331 16.9368 27.3255 16C26.485 16.032 25.4682 16.5369 24.8655 17.2121C24.3243 17.8113 23.8519 18.7687 23.9789 19.6871C24.9165 19.7567 25.8735 19.2311 26.4567 18.5543ZM28.5592 24.5C28.5827 26.9216 30.7757 27.7271 30.8 27.7375C30.7822 27.7943 30.4497 28.8853 29.6448 30.0133C28.9483 30.9877 28.2259 31.9581 27.0877 31.9789C25.9697 31.9989 25.6097 31.3438 24.3308 31.3438C23.0526 31.3438 22.653 31.958 21.5949 31.9988C20.4963 32.038 19.6591 30.9446 18.9577 29.9734C17.5226 27.9871 16.4265 24.3601 17.8988 21.9121C18.6301 20.6969 19.9365 19.9262 21.3554 19.907C22.4338 19.887 23.4523 20.6023 24.1116 20.6023C24.7709 20.6023 26.0086 19.7424 27.3094 19.8688C27.8538 19.8904 29.3827 20.0791 30.364 21.4559C30.2847 21.5031 28.5398 22.476 28.5592 24.5Z" fill="white"/>
</svg>
