<svg width="48" height="48" viewBox="0 0 48 48" fill="none" xmlns="http://www.w3.org/2000/svg">
<rect width="48" height="48" rx="24" fill="#1F2031"/>
<g clip-path="url(#clip0_138_531)">
<path d="M16 24C16 19.5888 19.5888 16 24 16C25.7816 16 27.4678 16.5732 28.8765 17.6576L27.0174 20.0725C26.1464 19.4021 25.103 19.0476 24 19.0476C21.2693 19.0476 19.0476 21.2693 19.0476 24C19.0476 26.7307 21.2693 28.9524 24 28.9524C26.1994 28.9524 28.0684 27.5114 28.7125 25.5238H24V22.4762H32V24C32 28.4112 28.4112 32 24 32C19.5888 32 16 28.4112 16 24Z" fill="white"/>
</g>
<defs>
<clipPath id="clip0_138_531">
<rect width="16" height="16" fill="white" transform="translate(16 16)"/>
</clipPath>
</defs>
</svg>
