<svg width="48" height="48" viewBox="0 0 48 48" fill="none" xmlns="http://www.w3.org/2000/svg">
<rect width="48" height="48" rx="24" fill="#1F2031"/>
<path fill-rule="evenodd" clip-rule="evenodd" d="M21.032 30.3998C27.0696 30.3998 30.372 25.4747 30.372 21.2041C30.372 21.0639 30.372 20.9248 30.3624 20.7861C31.0048 20.3293 31.5592 19.7621 32 19.1131C31.4016 19.3746 30.7656 19.5461 30.1152 19.6217C30.8 19.2176 31.3128 18.5828 31.5584 17.8338C30.9136 18.2103 30.2088 18.476 29.4736 18.6186C28.2304 17.3174 26.1512 17.2543 24.8288 18.4783C23.9768 19.2675 23.6144 20.4442 23.8792 21.5666C21.24 21.4359 18.7808 20.2088 17.1136 18.19C16.2424 19.6669 16.688 21.5554 18.1304 22.5037C17.608 22.4887 17.0968 22.3503 16.64 22.0998V22.1408C16.6408 23.6791 17.7424 25.0036 19.2736 25.3084C18.7904 25.4384 18.2832 25.4572 17.792 25.3635C18.2216 26.6804 19.4544 27.5824 20.8584 27.6084C19.696 28.5079 18.26 28.9963 16.7816 28.9947C16.5208 28.9939 16.26 28.979 16 28.9482C17.5016 29.8966 19.248 30.3998 21.032 30.3975" fill="white"/>
</svg>
